<svg width="300" height="122" viewBox="0 0 300 122" fill="none" xmlns="http://www.w3.org/2000/svg">
<g clip-path="url(#clip0_1_2)">
<path d="M157.453 7.78571H168.868C169.493 7.78571 170 8.30762 170 8.95143V17.6943H157.453V7.78571Z" fill="#204943"/>
<path d="M157.453 16.6257H168.868C169.493 16.6257 170 17.1476 170 17.7914V26.5343H157.453V16.6257Z" fill="#9AB4A6"/>
<path d="M157.453 25.4657H168.868C169.493 25.4657 170 25.9876 170 26.6314V35.3743H157.453V25.4657Z" fill="#7F7767"/>
<path d="M157.453 34.3057H168.868C169.493 34.3057 170 34.8276 170 35.4714V43.0486C170 43.6924 169.493 44.2143 168.868 44.2143H157.453V34.3057Z" fill="#204943"/>
<path d="M167.736 50.3343C167.736 50.9781 167.229 51.5 166.604 51.5H131.132C130.507 51.5 130 50.9781 130 50.3343V1.66571C130 1.02191 130.507 0.5 131.132 0.5H166.604C167.229 0.5 167.736 1.02191 167.736 1.66571V50.3343Z" fill="#73A695"/>
<path d="M141.981 17.6943C141.981 21.6108 145.064 24.7857 148.868 24.7857C152.671 24.7857 155.755 21.6108 155.755 17.6943C155.755 13.7778 152.671 10.6029 148.868 10.6029C145.064 10.6029 141.981 13.7778 141.981 17.6943Z" fill="#F5F5F5"/>
<path d="M160.849 35.52C160.849 32.2741 158.294 29.6429 155.142 29.6429H142.594C139.442 29.6429 136.887 32.2741 136.887 35.52V41.3971H160.849V35.52Z" fill="#F5F5F5"/>
</g>
<path d="M0 106.467C0 103.596 0.715036 101.02 2.14511 98.7398C3.57518 96.4314 5.51821 94.6297 7.9742 93.3348C10.4613 92.0398 13.2126 91.3923 16.2282 91.3923C19.7723 91.3923 22.8656 92.1665 25.5081 93.7148C28.1506 95.2631 30.0781 97.4589 31.2906 100.302H26.2076C25.306 98.5286 24.0003 97.1633 22.2905 96.2062C20.6117 95.249 18.5909 94.7705 16.2282 94.7705C13.9587 94.7705 11.9224 95.249 10.1193 96.2062C8.31618 97.1633 6.90165 98.5286 5.87573 100.302C4.84981 102.048 4.33685 104.103 4.33685 106.467C4.33685 108.804 4.84981 110.859 5.87573 112.632C6.90165 114.378 8.31618 115.729 10.1193 116.686C11.9224 117.643 13.9587 118.122 16.2282 118.122C18.5909 118.122 20.6117 117.657 22.2905 116.728C24.0003 115.771 25.306 114.406 26.2076 112.632H31.2906C30.0781 115.447 28.1506 117.629 25.5081 119.178C22.8656 120.698 19.7723 121.458 16.2282 121.458C13.2126 121.458 10.4613 120.824 7.9742 119.558C5.51821 118.263 3.57518 116.475 2.14511 114.195C0.715036 111.915 0 109.339 0 106.467Z" fill="#73A695"/>
<path d="M52.3435 121.5C49.3279 121.5 46.5765 120.867 44.0895 119.6C41.6024 118.305 39.6283 116.517 38.1671 114.237C36.737 111.929 36.022 109.339 36.022 106.467C36.022 103.596 36.737 101.02 38.1671 98.7398C39.6283 96.4314 41.6024 94.6438 44.0895 93.377C46.5765 92.082 49.3279 91.4345 52.3435 91.4345C55.3901 91.4345 58.157 92.082 60.6441 93.377C63.1312 94.6438 65.0897 96.4173 66.5198 98.6975C67.9499 100.978 68.6649 103.568 68.6649 106.467C68.6649 109.367 67.9499 111.957 66.5198 114.237C65.0897 116.517 63.1312 118.305 60.6441 119.6C58.157 120.867 55.3901 121.5 52.3435 121.5ZM52.3435 118.164C54.6129 118.164 56.6492 117.686 58.4523 116.728C60.2866 115.771 61.7166 114.406 62.7426 112.632C63.7996 110.859 64.3281 108.804 64.3281 106.467C64.3281 104.103 63.7996 102.048 62.7426 100.302C61.7166 98.5286 60.3021 97.1633 58.499 96.2062C56.6958 95.249 54.644 94.7705 52.3435 94.7705C50.0429 94.7705 47.9911 95.249 46.1879 96.2062C44.3848 97.1633 42.9547 98.5286 41.8977 100.302C40.8718 102.048 40.3588 104.103 40.3588 106.467C40.3588 108.804 40.8718 110.859 41.8977 112.632C42.9547 114.406 44.3848 115.771 46.1879 116.728C48.0222 117.686 50.074 118.164 52.3435 118.164Z" fill="#73A695"/>
<path d="M99.8218 121.204H95.5782L78.5106 97.7686V121.204H74.2671V91.7301H78.5106L95.5782 115.124V91.7301H99.8218V121.204Z" fill="#73A695"/>
<path d="M127.061 91.7724V94.8971H118.201V121.204H113.957V94.8971H105.05V91.7724H127.061Z" fill="#73A695"/>
<path d="M151.497 114.659H137.321L134.71 121.204H130.233L141.984 91.9413H146.881L158.586 121.204H154.109L151.497 114.659ZM150.285 111.534L144.409 96.6707L138.534 111.534H150.285Z" fill="#73A695"/>
<path d="M162.122 106.467C162.122 103.596 162.837 101.02 164.267 98.7398C165.697 96.4314 167.64 94.6297 170.096 93.3348C172.583 92.0398 175.334 91.3923 178.35 91.3923C181.894 91.3923 184.987 92.1665 187.63 93.7148C190.272 95.2631 192.2 97.4589 193.412 100.302H188.329C187.428 98.5286 186.122 97.1633 184.412 96.2062C182.733 95.249 180.713 94.7705 178.35 94.7705C176.08 94.7705 174.044 95.249 172.241 96.2062C170.438 97.1633 169.023 98.5286 167.997 100.302C166.972 102.048 166.459 104.103 166.459 106.467C166.459 108.804 166.972 110.859 167.997 112.632C169.023 114.378 170.438 115.729 172.241 116.686C174.044 117.643 176.08 118.122 178.35 118.122C180.713 118.122 182.733 117.657 184.412 116.728C186.122 115.771 187.428 114.406 188.329 112.632H193.412C192.2 115.447 190.272 117.629 187.63 119.178C184.987 120.698 181.894 121.458 178.35 121.458C175.334 121.458 172.583 120.824 170.096 119.558C167.64 118.263 165.697 116.475 164.267 114.195C162.837 111.915 162.122 109.339 162.122 106.467Z" fill="#73A695"/>
<path d="M219.735 91.7724V94.8971H210.874V121.204H206.631V94.8971H197.724V91.7724H219.735Z" fill="#73A695"/>
<path d="M206.628 91.5137H210.878V71.7199H206.628V91.5137Z" fill="#73A695"/>
<path d="M228.973 121.204H233.102V71.5H228.973V121.204Z" fill="#73A695"/>
<path d="M213.186 91.7776V94.8985H228.487V91.7776H213.186Z" fill="#73A695"/>
<path d="M266.218 84.6061V108.228H261.886V104.737C261.061 105.944 259.902 106.892 258.411 107.582C256.951 108.243 255.332 108.573 253.555 108.573C251.524 108.573 249.699 108.2 248.08 107.453C246.462 106.677 245.177 105.527 244.225 104.004C243.304 102.481 242.844 100.627 242.844 98.4433V84.6061H247.128V97.926C247.128 100.254 247.779 102.05 249.08 103.314C250.381 104.55 252.159 105.168 254.412 105.168C256.729 105.168 258.553 104.521 259.886 103.228C261.219 101.935 261.886 100.053 261.886 97.5812V84.6061H266.218Z" fill="#73A695"/>
<path d="M277.864 89.003C278.753 87.5948 280.054 86.4453 281.768 85.5545C283.481 84.6636 285.433 84.2182 287.623 84.2182C289.971 84.2182 292.082 84.7211 293.954 85.7269C295.827 86.7327 297.302 88.1552 298.381 89.9944C299.46 91.8049 300 93.9171 300 96.3311C300 98.7163 299.46 100.843 298.381 102.711C297.302 104.579 295.811 106.03 293.907 107.065C292.034 108.099 289.94 108.616 287.623 108.616C285.37 108.616 283.386 108.171 281.672 107.28C279.99 106.389 278.721 105.254 277.864 103.875V108.228H273.532V76.3297H277.864V89.003ZM295.573 96.3311C295.573 94.5494 295.176 92.9975 294.383 91.6756C293.589 90.3537 292.51 89.3478 291.146 88.6581C289.813 87.9684 288.337 87.6236 286.718 87.6236C285.132 87.6236 283.656 87.9828 282.291 88.7012C280.958 89.3909 279.879 90.4111 279.054 91.7618C278.261 93.0837 277.864 94.6212 277.864 96.3742C277.864 98.1559 278.261 99.7221 279.054 101.073C279.879 102.395 280.958 103.415 282.291 104.133C283.656 104.823 285.132 105.168 286.718 105.168C288.337 105.168 289.813 104.823 291.146 104.133C292.51 103.415 293.589 102.395 294.383 101.073C295.176 99.7221 295.573 98.1416 295.573 96.3311Z" fill="#73A695"/>
<defs>
<clipPath id="clip0_1_2">
<rect width="40" height="51" fill="white" transform="translate(130 0.5)"/>
</clipPath>
</defs>
</svg>
