<svg width="600" height="100" viewBox="0 0 600 100" fill="none" xmlns="http://www.w3.org/2000/svg">
<path d="M0 69.9346C0 64.1917 1.43007 59.04 4.29021 54.4796C7.15036 49.8628 11.0364 46.2594 15.9484 43.6695C20.9226 41.0796 26.4252 39.7846 32.4564 39.7846C39.5446 39.7846 45.7312 41.333 51.0162 44.4296C56.3013 47.5262 60.1563 51.9178 62.5812 57.6043H52.4152C50.6121 54.0573 48.0007 51.3266 44.5809 49.4123C41.2234 47.4981 37.1819 46.5409 32.4564 46.5409C27.9175 46.5409 23.8449 47.4981 20.2386 49.4123C16.6324 51.3266 13.8033 54.0573 11.7515 57.6043C9.69962 61.0951 8.67369 65.2052 8.67369 69.9346C8.67369 74.6077 9.69962 78.7177 11.7515 82.2648C13.8033 85.7555 16.6324 88.458 20.2386 90.3723C23.8449 92.2866 27.9175 93.2437 32.4564 93.2437C37.1819 93.2437 41.2234 92.3147 44.5809 90.4568C48.0007 88.5425 50.6121 85.8118 52.4152 82.2648H62.5812C60.1563 87.895 56.3013 92.2584 51.0162 95.3551C45.7312 98.3954 39.5446 99.9155 32.4564 99.9155C26.4252 99.9155 20.9226 98.6487 15.9484 96.1151C11.0364 93.5252 7.15036 89.95 4.29021 85.3895C1.43007 80.829 0 75.6774 0 69.9346Z" fill="#73A695"/>
<path d="M104.687 100C98.6557 100 93.1531 98.7332 88.1789 96.1996C83.2048 93.6097 79.2565 90.0345 76.3342 85.474C73.474 80.8572 72.044 75.6774 72.044 69.9346C72.044 64.1917 73.474 59.04 76.3342 54.4796C79.2565 49.8628 83.2048 46.2876 88.1789 43.754C93.1531 41.164 98.6557 39.8691 104.687 39.8691C110.78 39.8691 116.314 41.164 121.288 43.754C126.262 46.2876 130.179 49.8346 133.04 54.3951C135.9 58.9556 137.33 64.1354 137.33 69.9346C137.33 75.7337 135.9 80.9135 133.04 85.474C130.179 90.0345 126.262 93.6097 121.288 96.1996C116.314 98.7332 110.78 100 104.687 100ZM104.687 93.3282C109.226 93.3282 113.298 92.371 116.905 90.4568C120.573 88.5425 123.433 85.8118 125.485 82.2648C127.599 78.7177 128.656 74.6077 128.656 69.9346C128.656 65.2052 127.599 61.0951 125.485 57.6043C123.433 54.0573 120.604 51.3266 116.998 49.4123C113.392 47.4981 109.288 46.5409 104.687 46.5409C100.086 46.5409 95.9821 47.4981 92.3759 49.4123C88.7696 51.3266 85.9095 54.0573 83.7954 57.6043C81.7436 61.0951 80.7177 65.2052 80.7177 69.9346C80.7177 74.6077 81.7436 78.7177 83.7954 82.2648C85.9095 85.8118 88.7696 88.5425 92.3759 90.4568C96.0443 92.371 100.148 93.3282 104.687 93.3282Z" fill="#73A695"/>
<path d="M199.644 99.4088H191.156L157.021 52.5371V99.4088H148.534V40.4603H157.021L191.156 87.2475V40.4603H199.644V99.4088Z" fill="#73A695"/>
<path d="M254.122 40.5447V46.7943H236.402V99.4088H227.915V46.7943H210.101V40.5447H254.122Z" fill="#73A695"/>
<path d="M302.995 86.3185H274.642L269.419 99.4088H260.466L283.969 40.8825H293.762L317.171 99.4088H308.218L302.995 86.3185ZM300.57 80.069L288.819 50.3413L277.067 80.069H300.57Z" fill="#73A695"/>
<path d="M324.243 69.9346C324.243 64.1917 325.673 59.04 328.534 54.4796C331.394 49.8628 335.28 46.2594 340.192 43.6695C345.166 41.0796 350.669 39.7846 356.7 39.7846C363.788 39.7846 369.975 41.333 375.26 44.4296C380.545 47.5262 384.4 51.9178 386.825 57.6043H376.659C374.856 54.0573 372.244 51.3266 368.824 49.4123C365.467 47.4981 361.425 46.5409 356.7 46.5409C352.161 46.5409 348.088 47.4981 344.482 49.4123C340.876 51.3266 338.047 54.0573 335.995 57.6043C333.943 61.0951 332.917 65.2052 332.917 69.9346C332.917 74.6077 333.943 78.7177 335.995 82.2648C338.047 85.7555 340.876 88.458 344.482 90.3723C348.088 92.2866 352.161 93.2437 356.7 93.2437C361.425 93.2437 365.467 92.3147 368.824 90.4568C372.244 88.5425 374.856 85.8118 376.659 82.2648H386.825C384.4 87.895 380.545 92.2584 375.26 95.3551C369.975 98.3954 363.788 99.9155 356.7 99.9155C350.669 99.9155 345.166 98.6487 340.192 96.1151C335.28 93.5252 331.394 89.95 328.534 85.3895C325.673 80.829 324.243 75.6774 324.243 69.9346Z" fill="#73A695"/>
<path d="M439.469 40.5447V46.7943H421.749V99.4088H413.262V46.7943H395.448V40.5447H439.469Z" fill="#73A695"/>
<path d="M413.256 40.0274H421.756V0.439862H413.256V40.0274Z" fill="#73A695"/>
<path d="M457.945 99.4088H466.203V0H457.945V99.4088Z" fill="#73A695"/>
<path d="M426.371 40.5553V46.7969H456.974V40.5553H426.371Z" fill="#73A695"/>
<path d="M532.435 26.2123V73.457H523.771V66.4737C522.121 68.8877 519.804 70.7844 516.821 72.1638C513.901 73.4857 510.664 74.1467 507.11 74.1467C503.048 74.1467 499.398 73.3995 496.161 71.9051C492.924 70.3533 490.353 68.0543 488.449 65.0081C486.608 61.9619 485.688 58.2547 485.688 53.8866V26.2123H494.257V52.8521C494.257 57.5076 495.558 61.0998 498.16 63.6287C500.763 66.1001 504.317 67.3358 508.824 67.3358C513.457 67.3358 517.107 66.0426 519.773 63.4563C522.439 60.8699 523.771 57.1052 523.771 52.1624V26.2123H532.435Z" fill="#73A695"/>
<path d="M555.728 35.006C557.505 32.1897 560.108 29.8907 563.535 28.1089C566.963 26.3272 570.866 25.4363 575.246 25.4363C579.943 25.4363 584.164 26.4422 587.909 28.4538C591.653 30.4654 594.605 33.3105 596.763 36.9889C598.921 40.6098 600 44.8343 600 49.6622C600 54.4326 598.921 58.6858 596.763 62.4217C594.605 66.1576 591.622 69.0601 587.813 71.1292C584.068 73.1983 579.879 74.2329 575.246 74.2329C570.739 74.2329 566.772 73.342 563.345 71.5603C559.981 69.7785 557.442 67.5083 555.728 64.7495V73.457H547.064V9.65937H555.728V35.006ZM591.146 49.6622C591.146 46.0987 590.352 42.995 588.765 40.3512C587.179 37.7073 585.021 35.6957 582.291 34.3163C579.625 32.9369 576.674 32.2472 573.437 32.2472C570.263 32.2472 567.312 32.9656 564.582 34.4025C561.917 35.7819 559.759 37.8223 558.108 40.5236C556.521 43.1675 555.728 46.2424 555.728 49.7484C555.728 53.3119 556.521 56.4443 558.108 59.1456C559.759 61.7895 561.917 63.8299 564.582 65.2667C567.312 66.6461 570.263 67.3358 573.437 67.3358C576.674 67.3358 579.625 66.6461 582.291 65.2667C585.021 63.8299 587.179 61.7895 588.765 59.1456C590.352 56.4443 591.146 53.2831 591.146 49.6622Z" fill="#73A695"/>
</svg>
