<svg width="160" height="16" viewBox="0 0 160 16" fill="none" xmlns="http://www.w3.org/2000/svg">
<path d="M0.880682 12V0.363636H8.82386V2.64773H3.69318V5.03409H8.31818V7.32386H3.69318V12H0.880682ZM15.3239 8.23295V3.27273H18.0966V12H15.4489V10.375H15.358C15.1648 10.9091 14.8352 11.3333 14.3693 11.6477C13.9072 11.9583 13.3485 12.1136 12.6932 12.1136C12.0985 12.1136 11.5758 11.9773 11.125 11.7045C10.6742 11.4318 10.3239 11.0511 10.0739 10.5625C9.82386 10.0701 9.69697 9.49432 9.69318 8.83523V3.27273H12.4716V8.28977C12.4754 8.76326 12.6004 9.13636 12.8466 9.40909C13.0928 9.68182 13.428 9.81818 13.8523 9.81818C14.1288 9.81818 14.3769 9.75758 14.5966 9.63636C14.8201 9.51136 14.9962 9.33144 15.125 9.09659C15.2576 8.85795 15.3239 8.57008 15.3239 8.23295ZM22.6435 0.363636V12H19.8651V0.363636H22.6435ZM27.1903 0.363636V12H24.4119V0.363636H27.1903ZM36.5781 5.9375L34.027 6.00568C34.0005 5.82386 33.9285 5.66288 33.8111 5.52273C33.6937 5.37879 33.5402 5.26705 33.3509 5.1875C33.1652 5.10417 32.9493 5.0625 32.7031 5.0625C32.3812 5.0625 32.1065 5.12689 31.8793 5.25568C31.6558 5.38447 31.5459 5.55871 31.5497 5.77841C31.5459 5.94886 31.6141 6.09659 31.7543 6.22159C31.8982 6.34659 32.1539 6.44697 32.5213 6.52273L34.2031 6.84091C35.0743 7.00758 35.7221 7.28409 36.1463 7.67045C36.5743 8.05682 36.7902 8.56818 36.794 9.20455C36.7902 9.80303 36.6122 10.3239 36.2599 10.767C35.9115 11.2102 35.4342 11.5549 34.8281 11.8011C34.2221 12.0436 33.5289 12.1648 32.7486 12.1648C31.5024 12.1648 30.5194 11.9091 29.7997 11.3977C29.0838 10.8826 28.6747 10.1932 28.5724 9.32955L31.3168 9.26136C31.3774 9.57955 31.5346 9.82197 31.7884 9.98864C32.0421 10.1553 32.366 10.2386 32.7599 10.2386C33.116 10.2386 33.4058 10.1723 33.6293 10.0398C33.8527 9.9072 33.9664 9.73106 33.9702 9.51136C33.9664 9.31439 33.8793 9.1572 33.7088 9.03977C33.5384 8.91856 33.2713 8.82386 32.9077 8.75568L31.3849 8.46591C30.5099 8.30682 29.8584 8.01326 29.4304 7.58523C29.0024 7.15341 28.7902 6.60417 28.794 5.9375C28.7902 5.35417 28.9455 4.85606 29.2599 4.44318C29.5743 4.02652 30.0213 3.70833 30.6009 3.48864C31.1804 3.26894 31.8641 3.15909 32.652 3.15909C33.8338 3.15909 34.7656 3.4072 35.4474 3.90341C36.1293 4.39583 36.5062 5.07386 36.5781 5.9375ZM43.0881 3.27273V5.31818H37.5824V3.27273H43.0881ZM38.7358 1.18182H41.5142V9.25568C41.5142 9.42614 41.5407 9.56439 41.5938 9.67045C41.6506 9.77273 41.732 9.84659 41.8381 9.89205C41.9441 9.93371 42.071 9.95455 42.2188 9.95455C42.3248 9.95455 42.4366 9.94508 42.554 9.92614C42.6752 9.90341 42.7661 9.88447 42.8267 9.86932L43.2472 11.875C43.1146 11.9129 42.9271 11.9602 42.6847 12.017C42.446 12.0739 42.16 12.1098 41.8267 12.125C41.1752 12.1553 40.6165 12.0795 40.1506 11.8977C39.6884 11.7121 39.3343 11.4242 39.0881 11.0341C38.8456 10.6439 38.7282 10.1534 38.7358 9.5625V1.18182ZM46.9659 12.1477C46.4091 12.1477 45.9148 12.0549 45.483 11.8693C45.0549 11.6799 44.7159 11.3958 44.4659 11.017C44.2197 10.6345 44.0966 10.1553 44.0966 9.57955C44.0966 9.0947 44.1818 8.68561 44.3523 8.35227C44.5227 8.01894 44.7576 7.74811 45.0568 7.53977C45.3561 7.33144 45.7008 7.17424 46.0909 7.06818C46.4811 6.95833 46.8977 6.88447 47.3409 6.84659C47.8371 6.80114 48.2367 6.75379 48.5398 6.70455C48.8428 6.65152 49.0625 6.57765 49.1989 6.48295C49.339 6.38447 49.4091 6.24621 49.4091 6.06818V6.03977C49.4091 5.74811 49.3087 5.52273 49.108 5.36364C48.9072 5.20455 48.6364 5.125 48.2955 5.125C47.928 5.125 47.6326 5.20455 47.4091 5.36364C47.1856 5.52273 47.0436 5.74242 46.983 6.02273L44.4205 5.93182C44.4962 5.40152 44.6913 4.92803 45.0057 4.51136C45.3239 4.09091 45.7595 3.76136 46.3125 3.52273C46.8693 3.2803 47.5379 3.15909 48.3182 3.15909C48.875 3.15909 49.3883 3.22538 49.858 3.35795C50.3277 3.48674 50.7367 3.67614 51.0852 3.92614C51.4337 4.17235 51.7027 4.47538 51.892 4.83523C52.0852 5.19508 52.1818 5.60606 52.1818 6.06818V12H49.5682V10.7841H49.5C49.3447 11.0795 49.1458 11.3295 48.9034 11.5341C48.6648 11.7386 48.3826 11.892 48.0568 11.9943C47.7348 12.0966 47.3712 12.1477 46.9659 12.1477ZM47.8239 10.3295C48.1231 10.3295 48.392 10.2689 48.6307 10.1477C48.8731 10.0265 49.0663 9.85985 49.2102 9.64773C49.3542 9.43182 49.4261 9.18182 49.4261 8.89773V8.06818C49.3466 8.10985 49.25 8.14773 49.1364 8.18182C49.0265 8.21591 48.9053 8.24811 48.7727 8.27841C48.6402 8.30871 48.5038 8.33523 48.3636 8.35795C48.2235 8.38068 48.089 8.40152 47.9602 8.42045C47.6989 8.46212 47.4754 8.52652 47.2898 8.61364C47.108 8.70076 46.9678 8.81439 46.8693 8.95455C46.7746 9.09091 46.7273 9.25379 46.7273 9.44318C46.7273 9.73106 46.8295 9.95076 47.0341 10.1023C47.2424 10.2538 47.5057 10.3295 47.8239 10.3295ZM57.9545 12.1648C57.0341 12.1648 56.2443 11.9754 55.5852 11.5966C54.9299 11.2178 54.4261 10.6913 54.0739 10.017C53.7216 9.33902 53.5455 8.55492 53.5455 7.66477C53.5455 6.77083 53.7216 5.98674 54.0739 5.3125C54.4299 4.63447 54.9356 4.10606 55.5909 3.72727C56.25 3.34848 57.036 3.15909 57.9489 3.15909C58.7557 3.15909 59.4583 3.30492 60.0568 3.59659C60.6591 3.88826 61.1288 4.30114 61.4659 4.83523C61.8068 5.36553 61.9867 5.98864 62.0057 6.70455H59.4091C59.3561 6.25758 59.2045 5.9072 58.9545 5.65341C58.7083 5.39962 58.3864 5.27273 57.9886 5.27273C57.6667 5.27273 57.3845 5.36364 57.142 5.54545C56.8996 5.72348 56.7102 5.98864 56.5739 6.34091C56.4413 6.68939 56.375 7.12121 56.375 7.63636C56.375 8.15152 56.4413 8.58712 56.5739 8.94318C56.7102 9.29545 56.8996 9.5625 57.142 9.74432C57.3845 9.92235 57.6667 10.0114 57.9886 10.0114C58.2462 10.0114 58.4735 9.95644 58.6705 9.84659C58.8712 9.73674 59.036 9.57576 59.1648 9.36364C59.2936 9.14773 59.375 8.88636 59.4091 8.57955H62.0057C61.9792 9.29924 61.7992 9.92803 61.4659 10.4659C61.1364 11.0038 60.6723 11.4223 60.0739 11.7216C59.4792 12.017 58.7727 12.1648 57.9545 12.1648ZM65.9332 9.71023L65.9446 6.39773H66.331L68.7855 3.27273H71.9332L68.2855 7.75H67.5526L65.9332 9.71023ZM63.4276 12V0.363636H66.206V12H63.4276ZM68.848 12L66.5639 8.375L68.3935 6.40341L72.0582 12H68.848ZM78.3565 6.22159V8.36364H72.9702V6.22159H78.3565ZM90.8807 4.57955H88.0398C88.0019 4.28788 87.9242 4.02462 87.8068 3.78977C87.6894 3.55492 87.5341 3.35417 87.3409 3.1875C87.1477 3.02083 86.9186 2.89394 86.6534 2.80682C86.392 2.71591 86.1023 2.67045 85.7841 2.67045C85.2197 2.67045 84.733 2.80871 84.3239 3.08523C83.9186 3.36174 83.6061 3.76136 83.3864 4.28409C83.1705 4.80682 83.0625 5.43939 83.0625 6.18182C83.0625 6.95455 83.1723 7.60227 83.392 8.125C83.6155 8.64394 83.928 9.03598 84.3295 9.30114C84.7348 9.5625 85.214 9.69318 85.767 9.69318C86.0777 9.69318 86.3598 9.65341 86.6136 9.57386C86.8712 9.49432 87.0966 9.37879 87.2898 9.22727C87.4867 9.07197 87.6477 8.88447 87.7727 8.66477C87.9015 8.44129 87.9905 8.18939 88.0398 7.90909L90.8807 7.92614C90.8314 8.44129 90.6818 8.94886 90.4318 9.44886C90.1856 9.94886 89.8466 10.4053 89.4148 10.8182C88.983 11.2273 88.4564 11.553 87.8352 11.7955C87.2178 12.0379 86.5095 12.1591 85.7102 12.1591C84.6572 12.1591 83.714 11.928 82.8807 11.4659C82.0511 11 81.3958 10.322 80.9148 9.43182C80.4337 8.54167 80.1932 7.45833 80.1932 6.18182C80.1932 4.90152 80.4375 3.81629 80.9261 2.92614C81.4148 2.03598 82.0758 1.35985 82.9091 0.897727C83.7424 0.435606 84.6761 0.204545 85.7102 0.204545C86.4148 0.204545 87.0663 0.30303 87.6648 0.5C88.2633 0.693181 88.7898 0.977272 89.2443 1.35227C89.6989 1.72348 90.0682 2.17992 90.3523 2.72159C90.6364 3.26326 90.8125 3.88258 90.8807 4.57955ZM95.2685 7.02273V12H92.4901V0.363636H95.1776V4.875H95.2741C95.4711 4.33712 95.7931 3.91667 96.2401 3.61364C96.6908 3.31061 97.242 3.15909 97.8935 3.15909C98.5071 3.15909 99.0412 3.29545 99.4957 3.56818C99.9503 3.83712 100.303 4.2178 100.553 4.71023C100.806 5.20265 100.931 5.77841 100.928 6.4375V12H98.1491V6.98295C98.1529 6.49811 98.0317 6.11932 97.7855 5.84659C97.5393 5.57386 97.1927 5.4375 96.7457 5.4375C96.4541 5.4375 96.1965 5.50189 95.973 5.63068C95.7533 5.75568 95.581 5.93561 95.456 6.17045C95.3348 6.4053 95.2723 6.68939 95.2685 7.02273ZM105.122 12.1477C104.565 12.1477 104.071 12.0549 103.639 11.8693C103.211 11.6799 102.872 11.3958 102.622 11.017C102.376 10.6345 102.253 10.1553 102.253 9.57955C102.253 9.0947 102.338 8.68561 102.509 8.35227C102.679 8.01894 102.914 7.74811 103.213 7.53977C103.512 7.33144 103.857 7.17424 104.247 7.06818C104.637 6.95833 105.054 6.88447 105.497 6.84659C105.993 6.80114 106.393 6.75379 106.696 6.70455C106.999 6.65152 107.219 6.57765 107.355 6.48295C107.495 6.38447 107.565 6.24621 107.565 6.06818V6.03977C107.565 5.74811 107.465 5.52273 107.264 5.36364C107.063 5.20455 106.793 5.125 106.452 5.125C106.084 5.125 105.789 5.20455 105.565 5.36364C105.342 5.52273 105.2 5.74242 105.139 6.02273L102.577 5.93182C102.652 5.40152 102.848 4.92803 103.162 4.51136C103.48 4.09091 103.916 3.76136 104.469 3.52273C105.026 3.2803 105.694 3.15909 106.474 3.15909C107.031 3.15909 107.545 3.22538 108.014 3.35795C108.484 3.48674 108.893 3.67614 109.241 3.92614C109.59 4.17235 109.859 4.47538 110.048 4.83523C110.241 5.19508 110.338 5.60606 110.338 6.06818V12H107.724V10.7841H107.656C107.501 11.0795 107.302 11.3295 107.06 11.5341C106.821 11.7386 106.539 11.892 106.213 11.9943C105.891 12.0966 105.527 12.1477 105.122 12.1477ZM105.98 10.3295C106.279 10.3295 106.548 10.2689 106.787 10.1477C107.029 10.0265 107.223 9.85985 107.366 9.64773C107.51 9.43182 107.582 9.18182 107.582 8.89773V8.06818C107.503 8.10985 107.406 8.14773 107.293 8.18182C107.183 8.21591 107.062 8.24811 106.929 8.27841C106.796 8.30871 106.66 8.33523 106.52 8.35795C106.38 8.38068 106.245 8.40152 106.116 8.42045C105.855 8.46212 105.632 8.52652 105.446 8.61364C105.264 8.70076 105.124 8.81439 105.026 8.95455C104.931 9.09091 104.884 9.25379 104.884 9.44318C104.884 9.73106 104.986 9.95076 105.19 10.1023C105.399 10.2538 105.662 10.3295 105.98 10.3295ZM114.815 0.363636V12H112.037V0.363636H114.815ZM119.362 0.363636V12H116.584V0.363636H119.362ZM125.21 12.1648C124.297 12.1648 123.509 11.9848 122.847 11.625C122.188 11.2614 121.68 10.7443 121.324 10.0739C120.972 9.39962 120.795 8.59848 120.795 7.67045C120.795 6.76894 120.973 5.98106 121.33 5.30682C121.686 4.62879 122.188 4.10227 122.835 3.72727C123.483 3.34848 124.246 3.15909 125.125 3.15909C125.746 3.15909 126.314 3.25568 126.83 3.44886C127.345 3.64205 127.79 3.92803 128.165 4.30682C128.54 4.68561 128.831 5.15341 129.04 5.71023C129.248 6.26326 129.352 6.89773 129.352 7.61364V8.30682H121.767V6.69318H126.767C126.763 6.39773 126.693 6.13447 126.557 5.90341C126.42 5.67235 126.233 5.49242 125.994 5.36364C125.759 5.23106 125.489 5.16477 125.182 5.16477C124.871 5.16477 124.593 5.23485 124.347 5.375C124.1 5.51136 123.905 5.69886 123.761 5.9375C123.617 6.17235 123.542 6.43939 123.534 6.73864V8.38068C123.534 8.73674 123.604 9.04924 123.744 9.31818C123.884 9.58333 124.083 9.78977 124.341 9.9375C124.598 10.0852 124.905 10.1591 125.261 10.1591C125.508 10.1591 125.731 10.125 125.932 10.0568C126.133 9.98864 126.305 9.88826 126.449 9.75568C126.593 9.62311 126.701 9.46023 126.773 9.26705L129.324 9.34091C129.218 9.91288 128.985 10.411 128.625 10.8352C128.269 11.2557 127.801 11.5833 127.222 11.8182C126.642 12.0492 125.972 12.1648 125.21 12.1648ZM133.55 7.02273V12H130.771V3.27273H133.413V4.875H133.51C133.703 4.34091 134.033 3.92235 134.499 3.61932C134.964 3.3125 135.519 3.15909 136.163 3.15909C136.777 3.15909 137.309 3.29735 137.76 3.57386C138.214 3.84659 138.567 4.22917 138.817 4.72159C139.071 5.21023 139.196 5.7822 139.192 6.4375V12H136.413V6.98295C136.417 6.49811 136.294 6.11932 136.044 5.84659C135.798 5.57386 135.455 5.4375 135.016 5.4375C134.724 5.4375 134.466 5.50189 134.243 5.63068C134.023 5.75568 133.853 5.93561 133.732 6.17045C133.614 6.4053 133.554 6.68939 133.55 7.02273ZM144.98 15.4545C144.151 15.4545 143.44 15.339 142.849 15.108C142.259 14.8769 141.795 14.5606 141.457 14.1591C141.12 13.7576 140.918 13.303 140.849 12.7955L143.48 12.6477C143.529 12.8258 143.62 12.9811 143.753 13.1136C143.889 13.2462 144.065 13.3485 144.281 13.4205C144.501 13.4924 144.759 13.5284 145.054 13.5284C145.52 13.5284 145.904 13.4148 146.207 13.1875C146.514 12.964 146.668 12.572 146.668 12.0114V10.4773H146.571C146.461 10.7462 146.295 10.9867 146.071 11.1989C145.848 11.411 145.569 11.5777 145.236 11.6989C144.906 11.8201 144.527 11.8807 144.099 11.8807C143.463 11.8807 142.88 11.733 142.349 11.4375C141.823 11.1383 141.401 10.6761 141.082 10.0511C140.768 9.42235 140.611 8.61364 140.611 7.625C140.611 6.60606 140.774 5.76705 141.099 5.10795C141.425 4.44508 141.851 3.95455 142.378 3.63636C142.908 3.31818 143.478 3.15909 144.088 3.15909C144.546 3.15909 144.938 3.23864 145.264 3.39773C145.594 3.55303 145.865 3.75379 146.077 4C146.289 4.24621 146.45 4.50189 146.56 4.76705H146.639V3.27273H149.406V12.0341C149.406 12.7727 149.221 13.3958 148.849 13.9034C148.478 14.411 147.959 14.7955 147.293 15.0568C146.626 15.322 145.855 15.4545 144.98 15.4545ZM145.065 9.85795C145.402 9.85795 145.69 9.76894 145.929 9.59091C146.168 9.41288 146.351 9.1572 146.48 8.82386C146.609 8.49053 146.673 8.09091 146.673 7.625C146.673 7.15152 146.609 6.74432 146.48 6.40341C146.355 6.05871 146.171 5.79356 145.929 5.60795C145.69 5.42235 145.402 5.32955 145.065 5.32955C144.721 5.32955 144.429 5.42424 144.19 5.61364C143.952 5.80303 143.77 6.07008 143.645 6.41477C143.524 6.75568 143.463 7.15909 143.463 7.625C143.463 8.09091 143.526 8.49053 143.651 8.82386C143.776 9.1572 143.955 9.41288 144.19 9.59091C144.429 9.76894 144.721 9.85795 145.065 9.85795ZM155.257 12.1648C154.344 12.1648 153.556 11.9848 152.893 11.625C152.234 11.2614 151.727 10.7443 151.371 10.0739C151.018 9.39962 150.842 8.59848 150.842 7.67045C150.842 6.76894 151.02 5.98106 151.376 5.30682C151.732 4.62879 152.234 4.10227 152.882 3.72727C153.53 3.34848 154.293 3.15909 155.172 3.15909C155.793 3.15909 156.361 3.25568 156.876 3.44886C157.392 3.64205 157.837 3.92803 158.212 4.30682C158.587 4.68561 158.878 5.15341 159.087 5.71023C159.295 6.26326 159.399 6.89773 159.399 7.61364V8.30682H151.814V6.69318H156.814C156.81 6.39773 156.74 6.13447 156.604 5.90341C156.467 5.67235 156.28 5.49242 156.041 5.36364C155.806 5.23106 155.536 5.16477 155.229 5.16477C154.918 5.16477 154.64 5.23485 154.393 5.375C154.147 5.51136 153.952 5.69886 153.808 5.9375C153.664 6.17235 153.589 6.43939 153.581 6.73864V8.38068C153.581 8.73674 153.651 9.04924 153.791 9.31818C153.931 9.58333 154.13 9.78977 154.388 9.9375C154.645 10.0852 154.952 10.1591 155.308 10.1591C155.554 10.1591 155.778 10.125 155.979 10.0568C156.179 9.98864 156.352 9.88826 156.496 9.75568C156.64 9.62311 156.748 9.46023 156.82 9.26705L159.371 9.34091C159.265 9.91288 159.032 10.411 158.672 10.8352C158.316 11.2557 157.848 11.5833 157.268 11.8182C156.689 12.0492 156.018 12.1648 155.257 12.1648Z" fill="#FF577F"/>
</svg>
