<svg width="161" height="32" viewBox="0 0 161 32" fill="none" xmlns="http://www.w3.org/2000/svg">
<g clip-path="url(#clip0_289_280)">
<path d="M17.2217 5.02859H24.0708C24.4459 5.02859 24.75 5.34296 24.75 5.73076V10.997H17.2217V5.02859Z" fill="#204943"/>
<path d="M17.2217 10.3534H24.0708C24.4459 10.3534 24.75 10.6678 24.75 11.0556V16.3218H17.2217V10.3534Z" fill="#9AB4A6"/>
<path d="M17.2217 15.6782H24.0708C24.4459 15.6782 24.75 15.9926 24.75 16.3804V21.6466H17.2217V15.6782Z" fill="#7F7767"/>
<path d="M17.2217 21.003H24.0708C24.4459 21.003 24.75 21.3174 24.75 21.7052V26.2693C24.75 26.6571 24.4459 26.9714 24.0708 26.9714H17.2217V21.003Z" fill="#204943"/>
<path d="M23.3915 30.6578C23.3915 31.0456 23.0874 31.36 22.7123 31.36H1.42924C1.05411 31.36 0.75 31.0456 0.75 30.6578V1.34219C0.75 0.954387 1.05411 0.640015 1.42925 0.640015H22.7123C23.0874 0.640015 23.3915 0.954388 23.3915 1.34219V30.6578Z" fill="#73A695"/>
<path d="M7.93868 10.997C7.93868 13.3562 9.78867 15.2686 12.0708 15.2686C14.3528 15.2686 16.2028 13.3562 16.2028 10.997C16.2028 8.63794 14.3528 6.7255 12.0708 6.7255C9.78867 6.7255 7.93868 8.63794 7.93868 10.997Z" fill="#F5F5F5"/>
<path d="M19.2594 21.7344C19.2594 19.7793 17.7262 18.1943 15.8349 18.1943H8.3066C6.41529 18.1943 4.88208 19.7793 4.88208 21.7344V25.2745H19.2594V21.7344Z" fill="#F5F5F5"/>
</g>
<path d="M40.75 19.9869C40.75 18.8383 41.036 17.808 41.608 16.8959C42.1801 15.9726 42.9573 15.2519 43.9397 14.7339C44.9345 14.2159 46.035 13.9569 47.2413 13.9569C48.6589 13.9569 49.8962 14.2666 50.9532 14.8859C52.0103 15.5052 52.7813 16.3836 53.2662 17.5209H51.233C50.8724 16.8115 50.3501 16.2653 49.6662 15.8825C48.9947 15.4996 48.1864 15.3082 47.2413 15.3082C46.3335 15.3082 45.519 15.4996 44.7977 15.8825C44.0765 16.2653 43.5107 16.8115 43.1003 17.5209C42.6899 18.219 42.4847 19.041 42.4847 19.9869C42.4847 20.9215 42.6899 21.7435 43.1003 22.453C43.5107 23.1511 44.0765 23.6916 44.7977 24.0745C45.519 24.4573 46.3335 24.6487 47.2413 24.6487C48.1864 24.6487 48.9947 24.4629 49.6662 24.0914C50.3501 23.7085 50.8724 23.1624 51.233 22.453H53.2662C52.7813 23.579 52.0103 24.4517 50.9532 25.071C49.8962 25.6791 48.6589 25.9831 47.2413 25.9831C46.035 25.9831 44.9345 25.7297 43.9397 25.223C42.9573 24.705 42.1801 23.99 41.608 23.0779C41.036 22.1658 40.75 21.1355 40.75 19.9869Z" fill="#73A695"/>
<path d="M61.6874 26C60.4811 26 59.3806 25.7466 58.3858 25.2399C57.3909 24.7219 56.6013 24.0069 56.0168 23.0948C55.4448 22.1714 55.1588 21.1355 55.1588 19.9869C55.1588 18.8383 55.4448 17.808 56.0168 16.8959C56.6013 15.9726 57.3909 15.2575 58.3858 14.7508C59.3806 14.2328 60.4811 13.9738 61.6874 13.9738C62.9061 13.9738 64.0128 14.2328 65.0076 14.7508C66.0025 15.2575 66.7859 15.9669 67.3579 16.879C67.93 17.7911 68.216 18.8271 68.216 19.9869C68.216 21.1467 67.93 22.1827 67.3579 23.0948C66.7859 24.0069 66.0025 24.7219 65.0076 25.2399C64.0128 25.7466 62.9061 26 61.6874 26ZM61.6874 24.6656C62.5952 24.6656 63.4097 24.4742 64.1309 24.0914C64.8646 23.7085 65.4367 23.1624 65.847 22.453C66.2698 21.7435 66.4812 20.9215 66.4812 19.9869C66.4812 19.041 66.2698 18.219 65.847 17.5209C65.4367 16.8115 64.8708 16.2653 64.1496 15.8825C63.4283 15.4996 62.6076 15.3082 61.6874 15.3082C60.7672 15.3082 59.9464 15.4996 59.2252 15.8825C58.5039 16.2653 57.9319 16.8115 57.5091 17.5209C57.0987 18.219 56.8935 19.041 56.8935 19.9869C56.8935 20.9215 57.0987 21.7435 57.5091 22.453C57.9319 23.1624 58.5039 23.7085 59.2252 24.0914C59.9589 24.4742 60.7796 24.6656 61.6874 24.6656Z" fill="#73A695"/>
<path d="M80.6787 25.8818H78.9813L72.1542 16.5074V25.8818H70.4568V14.0921H72.1542L78.9813 23.4495V14.0921H80.6787V25.8818Z" fill="#73A695"/>
<path d="M91.5745 14.1089V15.3589H88.0304V25.8818H86.3329V15.3589H82.7702V14.1089H91.5745Z" fill="#73A695"/>
<path d="M101.349 23.2637H95.6784L94.6339 25.8818H92.8432L97.5437 14.1765H99.5023L104.184 25.8818H102.394L101.349 23.2637ZM100.864 22.0138L98.5137 16.0683L96.1634 22.0138H100.864Z" fill="#73A695"/>
<path d="M105.599 19.9869C105.599 18.8383 105.885 17.808 106.457 16.8959C107.029 15.9726 107.806 15.2519 108.788 14.7339C109.783 14.2159 110.884 13.9569 112.09 13.9569C113.508 13.9569 114.745 14.2666 115.802 14.8859C116.859 15.5052 117.63 16.3836 118.115 17.5209H116.082C115.721 16.8115 115.199 16.2653 114.515 15.8825C113.843 15.4996 113.035 15.3082 112.09 15.3082C111.182 15.3082 110.368 15.4996 109.646 15.8825C108.925 16.2653 108.359 16.8115 107.949 17.5209C107.539 18.219 107.333 19.041 107.333 19.9869C107.333 20.9215 107.539 21.7435 107.949 22.453C108.359 23.1511 108.925 23.6916 109.646 24.0745C110.368 24.4573 111.182 24.6487 112.09 24.6487C113.035 24.6487 113.843 24.4629 114.515 24.0914C115.199 23.7085 115.721 23.1624 116.082 22.453H118.115C117.63 23.579 116.859 24.4517 115.802 25.071C114.745 25.6791 113.508 25.9831 112.09 25.9831C110.884 25.9831 109.783 25.7297 108.788 25.223C107.806 24.705 107.029 23.99 106.457 23.0779C105.885 22.1658 105.599 21.1355 105.599 19.9869Z" fill="#73A695"/>
<path d="M128.644 14.1089V15.3589H125.1V25.8818H123.402V15.3589H119.84V14.1089H128.644Z" fill="#73A695"/>
<path d="M123.401 14.0055H125.101V6.08797H123.401V14.0055Z" fill="#73A695"/>
<path d="M132.339 25.8818H133.991V6H132.339V25.8818Z" fill="#73A695"/>
<path d="M126.024 14.1111V15.3594H132.145V14.1111H126.024Z" fill="#73A695"/>
<path d="M147.237 11.2425V20.6914H145.504V19.2947C145.174 19.7775 144.711 20.1569 144.114 20.4328C143.53 20.6971 142.883 20.8293 142.172 20.8293C141.36 20.8293 140.63 20.6799 139.982 20.381C139.335 20.0707 138.821 19.6109 138.44 19.0016C138.072 18.3924 137.888 17.6509 137.888 16.7773V11.2425H139.601V16.5704C139.601 17.5015 139.862 18.22 140.382 18.7257C140.903 19.22 141.613 19.4672 142.515 19.4672C143.441 19.4672 144.171 19.2085 144.705 18.6913C145.238 18.174 145.504 17.421 145.504 16.4325V11.2425H147.237Z" fill="#73A695"/>
<path d="M151.896 13.0012C152.251 12.4379 152.772 11.9781 153.457 11.6218C154.143 11.2654 154.923 11.0873 155.799 11.0873C156.739 11.0873 157.583 11.2884 158.332 11.6908C159.081 12.0931 159.671 12.6621 160.103 13.3978C160.534 14.122 160.75 14.9669 160.75 15.9324C160.75 16.8865 160.534 17.7372 160.103 18.4843C159.671 19.2315 159.074 19.812 158.313 20.2258C157.564 20.6397 156.726 20.8466 155.799 20.8466C154.898 20.8466 154.104 20.6684 153.419 20.3121C152.746 19.9557 152.238 19.5017 151.896 18.9499V20.6914H150.163V7.93187H151.896V13.0012ZM158.979 15.9324C158.979 15.2197 158.82 14.599 158.503 14.0702C158.186 13.5415 157.754 13.1391 157.208 12.8633C156.675 12.5874 156.085 12.4494 155.437 12.4494C154.803 12.4494 154.212 12.5931 153.666 12.8805C153.133 13.1564 152.702 13.5645 152.372 14.1047C152.054 14.6335 151.896 15.2485 151.896 15.9497C151.896 16.6624 152.054 17.2889 152.372 17.8291C152.702 18.3579 153.133 18.766 153.666 19.0533C154.212 19.3292 154.803 19.4672 155.437 19.4672C156.085 19.4672 156.675 19.3292 157.208 19.0533C157.754 18.766 158.186 18.3579 158.503 17.8291C158.82 17.2889 158.979 16.6566 158.979 15.9324Z" fill="#73A695"/>
<defs>
<clipPath id="clip0_289_280">
<rect width="24" height="30.72" fill="white" transform="translate(0.75 0.640015)"/>
</clipPath>
</defs>
</svg>
